<svg viewBox="0 0 24 24" fill="currentColor" width="32" height="32" xmlns="http://www.w3.org/2000/svg" xmlns:xlink="http://www.w3.org/1999/xlink">
    <path d="M10 11a2 2 0 0 0 2-2V4a2 2 0 0 0-2-2H3a2 2 0 0 0-2 2v5a2 2 0 0 0 2 2zM18.75 6.5H13V5h5.75A3.25 3.25 0 0 1 22 8.25v9.5A3.25 3.25 0 0 1 18.75 21H5.25A3.25 3.25 0 0 1 2 17.75v-5.92C2.313 11.94 2.65 12 3 12h0.5v5.75c0 0.966 0.784 1.75 1.75 1.75h13.5a1.75 1.75 0 0 0 1.75-1.75v-9.5a1.75 1.75 0 0 0-1.75-1.75" />
    <path transform="rotate(180 15.75 14.25)" d="M15.94 16h-1.69a0.75 0.75 0 0 0 0 1.5h3.5a0.75 0.75 0 0 0 0.75-0.75v-3.5a0.75 0.75 0 0 0-1.5 0v1.69l-2.72-2.72a0.75 0.75 0 1 0-1.06 1.06z" />
</svg>