<svg xmlns="http://www.w3.org/2000/svg" xml:space="preserve" style="fill-rule:evenodd;clip-rule:evenodd;stroke-linejoin:round;stroke-miterlimit:2" viewBox="0 0 24 24"><path d="M2 3.25a.75.75 0 0 1 1.5 0v3.399c1.153-1.388 2.65-2.563 4.528-3.144a11.18 11.18 0 0 1 7.233.192c2.316.861 4.504 2.61 5.646 4.692a.75.75 0 0 1-1.315.721c-.944-1.722-2.825-3.253-4.854-4.008a9.7 9.7 0 0 0-6.267-.165C6.77 5.463 5.4 6.601 4.342 7.999h3.907a.75.75 0 0 1 0 1.5h-5.5a.75.75 0 0 1-.75-.75v-5.5ZM13.599 12.5a.75.75 0 0 0 0-1.5h-3.548a.75.75 0 0 0-.743.651l-.4 3a.75.75 0 0 0 .743.849h2.168q.152-.002.308.02a2 2 0 1 1-2.06 2.891.75.75 0 1 0-1.334.684 3.499 3.499 0 0 0 6.582-1.107 3.5 3.5 0 0 0-3.51-3.987h-1.298l.2-1.5h2.891Z" style="fill-rule:nonzero"/></svg>