<svg viewBox="0 0 24 24" fill="currentColor" width="32" height="32" xmlns="http://www.w3.org/2000/svg" xmlns:xlink="http://www.w3.org/1999/xlink">
    <path d="M10 11a2 2 0 0 0 2-2V4a2 2 0 0 0-2-2H3a2 2 0 0 0-2 2v5a2 2 0 0 0 2 2zM10 12H3c-0.35 0-0.687-0.06-1-0.17v5.92A3.25 3.25 0 0 0 5.25 21h13.5A3.25 3.25 0 0 0 22 17.75v-9.5A3.25 3.25 0 0 0 18.75 5H13v4a3 3 0 0 1-3 3M17.75 14h-1.69l2.72 2.72a0.75 0.75 0 1 1-1.06 1.06L15 15.06v1.69a0.75 0.75 0 0 1-1.5 0v-3.5c0-0.41 0.34-0.75 0.75-0.75h3.5a0.75 0.75 0 0 1 0 1.5" />
</svg>