<svg viewBox="0 0 24 24" fill="currentColor" width="32" height="32" xmlns="http://www.w3.org/2000/svg" xmlns:xlink="http://www.w3.org/1999/xlink">
    <path transform="matrix(-1, 0, 0, 1, 24.750002, 0)" d="M22 3.25c0-0.5523-0.4477-1-1-1s-1 0.4477-1 1v2.7286c-1.0679-1.0793-2.378-1.971-3.9542-2.4588-2.4306-0.7522-5.0123-0.6896-7.3943 0.1965-2.3637 0.8792-4.6032 2.6636-5.7781 4.8065-0.2656 0.4842-0.0883 1.0921 0.396 1.3576 0.4843 0.2655 1.0921 0.0882 1.3576-0.3961 0.9115-1.6623 2.7408-3.1566 4.7218-3.8935 1.9629-0.7302 4.0913-0.7837 6.1058-0.1604 1.474 0.4562 2.6979 1.3911 3.6823 2.5697l-3.3869 0c-0.5523 0-1 0.4477-1 1 0 0.5522 0.4477 1 1 1H21c0.5523 0 1-0.4478 1-1zM6 15c0-1.1046 0.8954-2 2-2h8c1.1046 0 2 0.8954 2 2v4c0 1.1046-0.8954 2-2 2H8c-1.1046 0-2-0.8954-2-2zM8 15.5v3C8 18.7761 8.2239 19 8.5 19h7c0.2761 0 0.5-0.2239 0.5-0.5v-3c0-0.2761-0.2239-0.5-0.5-0.5h-7C8.2239 15 8 15.2239 8 15.5z" />
</svg>