<svg xmlns="http://www.w3.org/2000/svg" width="24" height="24" viewBox="0 0 24 24" fill="#000000">
<path d="M4 6.25C4 5.83579 4.33579 5.5 4.75 5.5H19.25C19.6642 5.5 20 5.83579 20 6.25C20 6.66421 19.6642 7 19.25 7H4.75C4.33579 7 4 6.66421 4 6.25ZM4 12.25C4 11.8358 4.33579 11.5 4.75 11.5H19.25C19.6642 11.5 20 11.8358 20 12.25C20 12.6642 19.6642 13 19.25 13H4.75C4.33579 13 4 12.6642 4 12.25ZM4 18.25C4 17.8358 4.33579 17.5 4.75 17.5H11.25C11.6642 17.5 12 17.8358 12 18.25C12 18.6642 11.6642 19 11.25 19H4.75C4.33579 19 4 18.6642 4 18.25ZM16.54 14.36C15.75 13.86 14.75 14.43 14.75 15.36V19.64C14.75 20.57 15.75 21.14 16.54 20.64L19.9 18.5C20.64 18.03 20.64 16.97 19.9 16.5L16.54 14.36ZM16.25 16.25V18.75C16.25 18.98 16.49 19.1 16.68 18.97L18.68 17.72C18.86 17.61 18.86 17.39 18.68 17.28L16.68 16.03C16.49 15.9 16.25 16.02 16.25 16.25Z" fill="#000000"/>
</svg>
