<svg xmlns="http://www.w3.org/2000/svg" xml:space="preserve" style="fill-rule:evenodd;clip-rule:evenodd;stroke-linejoin:round;stroke-miterlimit:2" viewBox="0 0 24 24"><path d="M21.25 3.25a1 1 0 0 0-2 0v2.729C18.182 4.9 16.872 4.008 15.296 3.52a11.44 11.44 0 0 0-7.394.196c-2.364.879-4.603 2.664-5.778 4.806a1.001 1.001 0 0 0 1.754.962C4.79 7.822 6.619 6.327 8.6 5.59a9.43 9.43 0 0 1 6.106-.16c1.474.456 2.698 1.391 3.682 2.569h-3.387a1 1 0 0 0 0 2h5.25a1 1 0 0 0 1-1v-5.75ZM13 13a1 1 0 0 0 0-2H9.9a1 1 0 0 0-.991.868l-.4 3A1 1 0 0 0 9.501 16h1.997a1.504 1.504 0 0 1 1.487 1.709 1.5 1.5 0 0 1-2.835.446 1 1 0 1 0-1.798.876 3.5 3.5 0 1 0 3.148-5.03h-.857l.133-1H13Z" style="fill-rule:nonzero"/></svg>