<svg xmlns="http://www.w3.org/2000/svg" xml:space="preserve" style="fill-rule:evenodd;clip-rule:evenodd;stroke-linejoin:round;stroke-miterlimit:2" viewBox="0 0 24 24"><path d="M3.843 2.5a.75.75 0 0 0-.75.75v5.5c0 .414.336.75.75.75h5.5a.75.75 0 0 0 0-1.5H5.435c1.058-1.398 2.428-2.536 4.129-3.062a9.7 9.7 0 0 1 6.267.165c2.029.755 3.909 2.285 4.854 4.008A.75.75 0 0 0 22 8.39c-1.142-2.083-3.33-3.831-5.646-4.692a11.18 11.18 0 0 0-7.233-.192c-1.879.581-3.375 1.756-4.528 3.144V3.251a.75.75 0 0 0-.75-.75ZM8.75 15.25c.763 0 1.253-.221 1.538-.474.284-.253.405-.571.395-.875-.018-.547-.54-1.4-2.183-1.4-.719 0-1.28.217-1.662.434a3 3 0 0 0-.428.292q-.069.058-.099.086l-.018.018-.001.001A.75.75 0 0 1 5.204 12.3l.01-.011.016-.017a3 3 0 0 1 .227-.204 4.5 4.5 0 0 1 .642-.439A4.85 4.85 0 0 1 8.5 11c2.208 0 3.629 1.272 3.682 2.85a2.61 2.61 0 0 1-.897 2.046q-.06.053-.123.104.063.05.123.104c.612.544.923 1.289.897 2.046C12.129 19.728 10.708 21 8.5 21a4.84 4.84 0 0 1-2.401-.629 4.5 4.5 0 0 1-.818-.593l-.051-.05-.016-.017-.01-.011s-.465-.592.032-1.06a.75.75 0 0 1 1.056.028l.001.001.018.018q.029.028.099.086c.093.076.237.183.428.292.382.216.943.434 1.662.434 1.643 0 2.165-.853 2.183-1.4a1.11 1.11 0 0 0-.395-.875c-.285-.253-.775-.474-1.538-.474a.75.75 0 0 1 0-1.5m5.449-2.621c.554-.991 1.483-1.629 2.803-1.629s2.249.638 2.803 1.629c.521.934.697 2.147.697 3.371s-.175 2.438-.697 3.371c-.554.991-1.483 1.629-2.803 1.629s-2.249-.638-2.803-1.629c-.521-.933-.697-2.147-.697-3.371s.175-2.438.697-3.371m1.309.732c-.338.605-.506 1.516-.506 2.639s.168 2.035.506 2.639c.306.547.751.861 1.494.861s1.188-.314 1.494-.861c.338-.605.506-1.516.506-2.639s-.168-2.035-.506-2.639c-.305-.547-.751-.861-1.494-.861s-1.188.314-1.494.861" style="fill-rule:nonzero"/></svg>