<svg xmlns="http://www.w3.org/2000/svg" width="24" height="24" viewBox="0 0 24 24" fill="#000000">
<path d="M2 7.25C2 5.45507 3.45507 4 5.25 4H18.75C20.5449 4 22 5.45507 22 7.25V16.75C22 18.5449 20.5449 20 18.75 20H5.25C3.45507 20 2 18.5449 2 16.75V7.25ZM5.25 5.5C4.2835 5.5 3.5 6.2835 3.5 7.25V16.75C3.5 17.7165 4.2835 18.5 5.25 18.5H18.75C19.7165 18.5 20.5 17.7165 20.5 16.75V7.25C20.5 6.2835 19.7165 5.5 18.75 5.5H5.25ZM5 13.25V10.75C5 10.3358 5.3358 10 5.75 10C6.1642 10 6.5 10.3358 6.5 10.75V13.25C6.5 13.6642 6.1642 14 5.75 14C5.3358 14 5 13.6642 5 13.25ZM8.125 14.75V9.25C8.125 8.8358 8.4608 8.5 8.875 8.5C9.2892 8.5 9.625 8.8358 9.625 9.25V14.75C9.625 15.1642 9.2892 15.5 8.875 15.5C8.4608 15.5 8.125 15.1642 8.125 14.75ZM11.25 16.75V7.25C11.25 6.8358 11.5858 6.5 12 6.5C12.4142 6.5 12.75 6.8358 12.75 7.25V16.75C12.75 17.1642 12.4142 17.5 12 17.5C11.5858 17.5 11.25 17.1642 11.25 16.75ZM14.375 14.25V9.75C14.375 9.3358 14.7108 9 15.125 9C15.5392 9 15.875 9.3358 15.875 9.75V14.25C15.875 14.6642 15.5392 15 15.125 15C14.7108 15 14.375 14.6642 14.375 14.25ZM17.5 13V11C17.5 10.5858 17.8358 10.25 18.25 10.25C18.6642 10.25 19 10.5858 19 11V13C19 13.4142 18.6642 13.75 18.25 13.75C17.8358 13.75 17.5 13.4142 17.5 13Z" fill="#000000"/>
</svg>