<?xml version="1.0" standalone="no"?>
<svg xmlns="http://www.w3.org/2000/svg" width="24" height="24" viewBox="0 0 24 24" fill="#000000">
<path d="M2 7.25C2 5.45507 3.45507 4 5.25 4H18.75C20.5449 4 22 5.45507 22 7.25V16.75C22 18.5449 20.5449 20 18.75 20H5.25C3.45507 20 2 18.5449 2 16.75V7.25ZM5 10.75V13.25C5 13.6642 5.3358 14 5.75 14C6.1642 14 6.5 13.6642 6.5 13.25V10.75C6.5 10.3358 6.1642 10 5.75 10C5.3358 10 5 10.3358 5 10.75ZM8.125 9.25V14.75C8.125 15.1642 8.4608 15.5 8.875 15.5C9.2892 15.5 9.625 15.1642 9.625 14.75V9.25C9.625 8.8358 9.2892 8.5 8.875 8.5C8.4608 8.5 8.125 8.8358 8.125 9.25ZM11.25 7.25V16.75C11.25 17.1642 11.5858 17.5 12 17.5C12.4142 17.5 12.75 17.1642 12.75 16.75V7.25C12.75 6.8358 12.4142 6.5 12 6.5C11.5858 6.5 11.25 6.8358 11.25 7.25ZM14.375 9.75V14.25C14.375 14.6642 14.7108 15 15.125 15C15.5392 15 15.875 14.6642 15.875 14.25V9.75C15.875 9.3358 15.5392 9 15.125 9C14.7108 9 14.375 9.3358 14.375 9.75ZM17.5 11V13C17.5 13.4142 17.8358 13.75 18.25 13.75C18.6642 13.75 19 13.4142 19 13V11C19 10.5858 18.6642 10.25 18.25 10.25C17.8358 10.25 17.5 10.5858 17.5 11Z" fill="#000000"/>
</svg>
