<svg viewBox="0 0 24 24" fill="none" width="32" height="32" xmlns="http://www.w3.org/2000/svg" xmlns:xlink="http://www.w3.org/1999/xlink">
    <path fill="#fff" d="M10.909 2.782a2.25 2.25 0 0 1 2.975 0.74l0.083 0.138 7.759 14.009a2.25 2.25 0 0 1-1.814 3.334l-0.154 6e-3H4.242A2.25 2.25 0 0 1 2.2 17.812l0.072-0.143L10.03 3.66a2.25 2.25 0 0 1 0.879-0.878zM12 16.002a0.999 0.999 0 1 0 0 1.997 0.999 0.999 0 0 0 0-1.997zM11.998 7.998a1 1 0 0 0-0.993 0.884L11 8.998V14l7e-3 0.117a1 1 0 0 0 1.987 0L13 14V8.998l-7e-3-0.117a1 1 0 0 0-0.995-0.883z" />
</svg>