<svg xmlns="http://www.w3.org/2000/svg" xml:space="preserve" style="fill-rule:evenodd;clip-rule:evenodd;stroke-linejoin:round;stroke-miterlimit:2" viewBox="0 0 24 24"><g transform="translate(-3.49 -3.657)scale(1.29955)"><clipPath id="a"><path d="M4.25 4.25h15.5v15.5H4.25z"/></clipPath><g clip-path="url(#a)"><path d="M7.467 5.782q.249-.696.845-1.118a2.26 2.26 0 0 1 1.341-.422h5.465q1.887 0 3.254 1.366t1.366 3.254v5.465q0 .746-.422 1.341a2.28 2.28 0 0 1-1.118.845v-7.65q0-1.242-.919-2.161-.92-.92-2.161-.919H7.467zm-.894 1.54h7.75q.944 0 1.639.696t.696 1.64v7.75q0 .993-.696 1.664a2.29 2.29 0 0 1-1.639.671h-7.75q-.993 0-1.664-.671-.67-.67-.671-1.664v-7.75q0-.944.671-1.64.67-.696 1.664-.696m0 1.54a.74.74 0 0 0-.571.248.8.8 0 0 0-.224.546v7.75q0 .348.224.571.224.224.571.224h7.75a.8.8 0 0 0 .546-.224.73.73 0 0 0 .248-.571v-7.75q0-.298-.248-.546-.249-.248-.546-.248z" style="fill-rule:nonzero"/></g></g></svg>